<svg width="69" height="69" viewBox="0 0 69 69" fill="none" xmlns="http://www.w3.org/2000/svg">
<path fill-rule="evenodd" clip-rule="evenodd" d="M30.9764 0.136285C26.9178 0.521457 22.3783 1.81565 18.865 3.58939C13.1925 6.45302 8.24651 11.0224 4.94514 16.4491C3.76873 18.3828 3.19988 19.5326 2.32107 21.7534C-1.57869 31.6067 -0.523263 42.9296 5.17778 52.4049C9.10536 58.9325 15.3344 64.2507 22.1248 66.8743C23.3676 67.3545 24.0677 67.5843 25.8191 68.0874C26.0383 68.1504 26.052 67.8222 26.052 62.5068V56.8593L25.4863 56.9687C23.138 57.4229 20.2206 56.534 18.5154 54.8446C18.0745 54.4077 17.4189 53.6111 17.0586 53.0745C16.6982 52.5377 16.1337 51.8053 15.8042 51.4469C15.1981 50.7877 14.1238 50.1725 13.5745 50.1701C13.4099 50.1693 13.2722 50.094 13.2689 50.0024C13.2656 49.911 13.1879 49.0126 13.0962 48.006L12.9294 46.176H13.54C14.3354 46.176 15.4992 46.484 16.3717 46.9255C17.8907 47.6939 19.0022 48.7861 20.4333 50.9163C21.0408 51.8206 21.5582 52.3034 22.3765 52.7294C23.0362 53.0729 24.5753 53.1307 25.5466 52.8484C26.157 52.671 26.1763 52.6491 26.3163 51.9746C26.507 51.056 27.0847 49.8592 27.8354 48.8275C28.1722 48.3647 28.4477 47.9469 28.4477 47.8992C28.4477 47.8513 27.8937 47.7086 27.2165 47.5819C25.7689 47.311 23.1352 46.4523 21.9968 45.88C19.0667 44.4072 16.9203 42.3525 15.4856 39.6473C13.5654 36.0267 13.305 31.5716 14.7702 27.4099C15.2918 25.9283 15.6786 25.173 16.5718 23.892L17.3078 22.8364L17.0803 21.8956C16.5662 19.7686 16.6698 17.1612 17.3546 14.9933C17.6714 13.9905 17.698 13.9528 18.0416 14.0199C18.2382 14.0584 18.7585 14.13 19.1977 14.1791C20.648 14.3411 22.2285 15.0101 24.8822 16.5853C26.5412 17.5702 26.3534 17.5478 28.7138 17.0391C32.4365 16.237 36.6196 16.3396 40.7786 17.3351L41.597 17.531L42.8416 16.7966C45.8304 15.0327 47.6465 14.3131 49.771 14.0512L50.3985 13.9738L50.7243 15.0053C51.403 17.154 51.5074 19.7617 50.9995 21.8865L50.7768 22.8182L51.536 24.016C53.6125 27.2926 54.3067 29.4603 54.3067 32.6671C54.3067 38.4318 51.3044 43.253 46.0784 45.88C44.9399 46.4523 42.3063 47.311 40.8586 47.5819C40.1816 47.7086 39.6275 47.8497 39.6275 47.8953C39.6275 47.9411 39.9349 48.3964 40.3108 48.9072C40.6865 49.4182 41.1378 50.1454 41.3135 50.5235C41.984 51.9661 42.0184 52.4545 42.0209 60.5923C42.023 67.7303 42.0362 68.1506 42.2561 68.0874C44.0074 67.5843 44.7075 67.3545 45.9503 66.8743C53.6897 63.8841 60.411 57.6408 64.2805 49.8475C68.7776 40.7903 69.3113 30.7364 65.7697 21.7919C64.875 19.5322 64.3103 18.3892 63.13 16.4491C60.2918 11.7838 56.3183 7.8103 51.653 4.97209C49.7178 3.79488 48.57 3.22711 46.3376 2.34324C41.5629 0.452781 36.0255 -0.34285 30.9764 0.136285Z" fill="#4281A4"/>
</svg>
