<svg width="69" height="69" viewBox="0 0 69 69" fill="none" xmlns="http://www.w3.org/2000/svg">
<path fill-rule="evenodd" clip-rule="evenodd" d="M30.9764 0.407769C26.9178 0.792941 22.3783 2.08714 18.865 3.86087C13.1925 6.7245 8.24651 11.2939 4.94514 16.7206C3.76873 18.6543 3.19988 19.8041 2.32107 22.0249C-1.57869 31.8782 -0.523263 43.2011 5.17778 52.6764C9.10536 59.2039 15.3344 64.5222 22.1248 67.1457C23.3676 67.6259 24.0677 67.8558 25.8191 68.3589C26.0383 68.4218 26.052 68.0936 26.052 62.7783V57.1308L25.4863 57.2402C23.138 57.6944 20.2206 56.8055 18.5154 55.1161C18.0745 54.6792 17.4189 53.8826 17.0586 53.346C16.6982 52.8092 16.1337 52.0768 15.8042 51.7184C15.1981 51.0592 14.1238 50.444 13.5745 50.4416C13.4099 50.4408 13.2722 50.3655 13.2689 50.2739C13.2656 50.1825 13.1879 49.2841 13.0962 48.2775L12.9294 46.4475H13.54C14.3354 46.4475 15.4992 46.7555 16.3717 47.1969C17.8907 47.9654 19.0022 49.0576 20.4333 51.1877C21.0408 52.0921 21.5582 52.5748 22.3765 53.0009C23.0362 53.3444 24.5753 53.4021 25.5466 53.1199C26.157 52.9424 26.1763 52.9206 26.3163 52.2461C26.507 51.3275 27.0847 50.1307 27.8354 49.099C28.1722 48.6362 28.4477 48.2184 28.4477 48.1707C28.4477 48.1227 27.8937 47.9801 27.2165 47.8534C25.7689 47.5825 23.1352 46.7238 21.9968 46.1515C19.0667 44.6787 16.9203 42.624 15.4856 39.9187C13.5654 36.2982 13.305 31.843 14.7702 27.6814C15.2918 26.1998 15.6786 25.4445 16.5718 24.1634L17.3078 23.1079L17.0803 22.167C16.5662 20.0401 16.6698 17.4326 17.3546 15.2648C17.6714 14.262 17.698 14.2243 18.0416 14.2914C18.2382 14.3298 18.7585 14.4015 19.1977 14.4506C20.648 14.6125 22.2285 15.2816 24.8822 16.8568C26.5412 17.8416 26.3534 17.8193 28.7138 17.3106C32.4365 16.5084 36.6196 16.6111 40.7786 17.6066L41.597 17.8025L42.8416 17.0681C45.8304 15.3042 47.6465 14.5846 49.771 14.3227L50.3985 14.2453L50.7243 15.2768C51.403 17.4255 51.5074 20.0332 50.9995 22.158L50.7768 23.0896L51.536 24.2875C53.6125 27.5641 54.3067 29.7318 54.3067 32.9385C54.3067 38.7033 51.3044 43.5245 46.0784 46.1515C44.9399 46.7238 42.3063 47.5825 40.8586 47.8534C40.1816 47.9801 39.6275 48.1211 39.6275 48.1668C39.6275 48.2126 39.9349 48.6679 40.3108 49.1787C40.6865 49.6896 41.1378 50.4169 41.3135 50.795C41.984 52.2376 42.0184 52.726 42.0209 60.8637C42.023 68.0018 42.0362 68.4221 42.2561 68.3589C44.0074 67.8558 44.7075 67.6259 45.9503 67.1457C53.6897 64.1555 60.411 57.9123 64.2805 50.119C68.7776 41.0617 69.3113 31.0079 65.7697 22.0634C64.875 19.8037 64.3103 18.6607 63.13 16.7206C60.2918 12.0553 56.3183 8.08179 51.653 5.24358C49.7178 4.06637 48.57 3.49859 46.3376 2.61472C41.5629 0.724265 36.0255 -0.0713659 30.9764 0.407769Z" fill="#FE938C"/>
</svg>
