<svg width="69" height="69" viewBox="0 0 69 69" fill="none" xmlns="http://www.w3.org/2000/svg">
<path fill-rule="evenodd" clip-rule="evenodd" d="M30.7935 0.082573C22.2544 0.969905 14.6798 4.7793 8.84409 11.1211C0.620532 20.0579 -2.1349 33.0061 1.70684 44.6605C3.44836 49.9438 6.20951 54.366 10.2432 58.332C15.5867 63.586 22.0846 66.7364 29.8604 67.8434C31.4414 68.0684 36.6701 68.0647 38.3119 67.8375C46.1178 66.7569 52.8372 63.4239 58.2399 57.9528C63.6155 52.509 66.7652 46.0593 67.8832 38.2055C68.106 36.6398 68.106 31.3864 67.8832 29.8206C67.2454 25.3402 65.9368 21.2955 63.9648 17.7092C62.4081 14.8781 60.5903 12.4535 58.2399 10.0733C52.9356 4.70184 46.3516 1.38236 38.7777 0.260918C37.145 0.0190876 32.4197 -0.0863222 30.7935 0.082573ZM49.953 20.6267C50.5404 20.8723 50.8226 21.4363 50.8226 22.3656C50.8226 23.2172 45.197 49.9421 44.8946 50.5269C44.4681 51.3518 43.5572 51.6648 42.6202 51.3087C42.3084 51.1901 39.2302 48.9736 34.7342 45.63L33.6187 44.8005L31.199 47.1101C29.4361 48.7928 28.6615 49.4456 28.3454 49.515C28.1068 49.5674 27.8815 49.5803 27.8449 49.5436C27.8081 49.5069 27.9065 47.5697 28.0634 45.2387L28.3488 41.0005L29.2832 40.1354C29.7971 39.6596 33.4014 36.3928 37.2926 32.8758C41.1839 29.3588 44.3676 26.3942 44.3676 26.2877C44.3676 26.1523 44.2258 26.0979 43.8964 26.1067C43.5155 26.1171 41.5403 27.3067 33.566 32.3288C28.1433 35.744 23.6377 38.5382 23.5535 38.5382C23.1862 38.5382 14.7951 35.841 14.3969 35.5949C13.5472 35.0697 13.7279 34.2731 14.8378 33.6527C15.1269 33.4911 17.2477 32.6322 19.5508 31.7441C21.8538 30.8561 26.1937 29.1826 29.195 28.0254C32.1962 26.8681 37.5565 24.7992 41.1068 23.4278C48.8898 20.4215 48.8168 20.4484 49.1965 20.4424C49.3635 20.4397 49.704 20.5228 49.953 20.6267Z" fill="#FE938C"/>
</svg>
